<?xml version="1.0" standalone="no"?>
<!DOCTYPE svg PUBLIC "-//W3C//DTD SVG 20010904//EN"
 "http://www.w3.org/TR/2001/REC-SVG-20010904/DTD/svg10.dtd">
<svg version="1.0" xmlns="http://www.w3.org/2000/svg"
 width="512.000000pt" height="512.000000pt" viewBox="0 0 512.000000 512.000000"
 preserveAspectRatio="xMidYMid meet">
<metadata>
Created by potrace 1.11, written by Peter Selinger 2001-2013
</metadata>
<g transform="translate(0.000000,512.000000) scale(0.100000,-0.100000)"
fill="#000000" stroke="none">
<path d="M3884 5105 c-128 -28 -280 -136 -335 -239 l-23 -44 -245 -5 c-215 -4
-255 -7 -321 -26 -123 -37 -225 -96 -317 -186 l-83 -80 -83 80 c-93 89 -193
149 -317 187 l-75 22 -1043 4 -1042 3 0 -2261 0 -2260 1918 0 1918 0 78 -145
c43 -80 79 -145 81 -145 2 0 38 65 81 145 l78 145 483 0 483 0 0 2260 0 2260
-328 0 -327 0 -24 45 c-32 61 -143 164 -214 198 -109 53 -227 67 -343 42z
m226 -313 c81 -49 132 -158 118 -253 l-3 -24 -230 0 -230 0 1 73 c2 62 6 80
31 120 71 115 203 150 313 84z m115 -722 l0 -155 -230 0 -230 0 -3 145 c-1 79
0 150 2 157 4 11 52 13 233 11 l228 -3 0 -155z m3 -442 c17 -17 17 -2419 0
-2436 -17 -17 -449 -17 -466 0 -17 17 -17 2419 0 2436 17 17 449 17 466 0z
m-2273 -168 l0 -145 -600 0 -600 0 -3 134 c-1 74 0 141 2 148 4 11 118 13 603
11 l598 -3 0 -145z m0 -600 l0 -145 -600 0 -600 0 -3 134 c-1 74 0 141 2 148
4 11 118 13 603 11 l598 -3 0 -145z m0 -600 l0 -145 -600 0 -600 0 -3 134 c-1
74 0 141 2 148 4 11 118 13 603 11 l598 -3 0 -145z m54 -1330 c107 -14 188
-55 276 -141 42 -40 86 -95 104 -128 l31 -58 -23 -21 -23 -22 -1034 0 -1034 0
-23 22 c-22 21 -23 28 -23 167 0 135 1 146 22 168 l21 23 816 0 c465 0 848 -5
890 -10z m1518 -12 c11 -13 55 -88 97 -167 l77 -143 -22 -24 -22 -24 -456 0
c-452 0 -455 0 -478 22 l-23 21 32 59 c42 78 161 191 243 230 79 36 146 45
361 47 165 1 171 0 191 -21z m1310 0 c22 -21 23 -28 23 -167 0 -206 22 -191
-289 -191 -233 0 -246 1 -267 21 l-21 20 78 146 c44 81 89 157 101 170 21 22
27 23 187 23 155 0 166 -1 188 -22z m-698 -12 c10 -12 -1 -39 -55 -138 -82
-151 -83 -153 -100 -136 -6 7 -42 68 -79 136 -53 99 -64 126 -54 138 9 11 41
14 144 14 103 0 135 -3 144 -14z"/>
</g>
</svg>
