<?xml version="1.0" standalone="no"?>
<!DOCTYPE svg PUBLIC "-//W3C//DTD SVG 20010904//EN"
 "http://www.w3.org/TR/2001/REC-SVG-20010904/DTD/svg10.dtd">
<svg version="1.0" xmlns="http://www.w3.org/2000/svg"
 width="512.000000pt" height="512.000000pt" viewBox="0 0 512.000000 512.000000"
 preserveAspectRatio="xMidYMid meet">
<metadata>
Created by potrace 1.11, written by Peter Selinger 2001-2013
</metadata>
<g transform="translate(0.000000,512.000000) scale(0.100000,-0.100000)"
fill="#000000" stroke="none">
<path d="M3900 5109 c-93 -15 -208 -79 -279 -155 -34 -36 -69 -81 -78 -99
l-16 -33 -241 -5 c-174 -3 -258 -9 -303 -21 -138 -35 -277 -118 -371 -221
l-52 -57 -52 57 c-93 103 -229 184 -371 222 -56 15 -163 17 -1099 20 l-1038 4
0 -2261 0 -2260 1919 0 1918 0 77 -145 c43 -80 79 -145 81 -145 2 0 38 65 81
145 l77 145 483 0 484 0 0 2260 0 2260 -328 0 -328 0 -16 34 c-9 19 -45 64
-79 100 -47 51 -81 76 -143 106 -112 55 -204 68 -326 49z m210 -317 c81 -49
132 -158 118 -253 l-3 -24 -230 0 -230 0 1 73 c2 62 6 80 31 120 71 115 203
150 313 84z m115 -722 l0 -155 -230 0 -230 0 -3 145 c-1 79 0 150 2 157 4 11
52 13 233 11 l228 -3 0 -155z m3 -442 c17 -17 17 -2419 0 -2436 -17 -17 -449
-17 -466 0 -17 17 -17 2419 0 2436 17 17 449 17 466 0z m-2273 -168 l0 -145
-600 0 -600 0 -3 134 c-1 74 0 141 2 148 4 11 118 13 603 11 l598 -3 0 -145z
m0 -600 l0 -145 -600 0 -600 0 -3 134 c-1 74 0 141 2 148 4 11 118 13 603 11
l598 -3 0 -145z m0 -600 l0 -145 -600 0 -600 0 -3 134 c-1 74 0 141 2 148 4
11 118 13 603 11 l598 -3 0 -145z m2184 -1354 c10 -12 -1 -39 -55 -138 -82
-151 -83 -153 -100 -136 -6 7 -42 68 -79 136 -53 99 -64 126 -54 138 9 11 41
14 144 14 103 0 135 -3 144 -14z m-2130 -6 c99 -13 187 -55 260 -125 65 -62
131 -172 109 -180 -7 -3 -479 -4 -1048 -3 l-1035 3 -3 145 c-1 79 0 150 2 157
4 11 162 13 823 13 466 0 850 -5 892 -10z m1580 -141 c45 -82 79 -154 76 -160
-7 -10 -918 -13 -928 -3 -14 14 58 125 114 179 70 67 163 113 251 124 34 5
140 9 235 10 l171 1 81 -151z m1236 -9 l0 -155 -245 -3 c-134 -1 -250 0 -257
2 -11 4 44 116 134 274 l24 42 172 -2 172 -3 0 -155z"/>
</g>
</svg>
